<svg width="256" height="51" viewBox="0 0 256 51" fill="none" xmlns="http://www.w3.org/2000/svg">
<path d="M0.933594 49.2214V1.54712H12.9572V19.734H32.584V1.54712H44.6077V49.2214H32.584V30.9463H12.9572V49.2214H0.933594Z" fill="#0A001B"/>
<path d="M79.1591 50.5457C74.2671 50.5457 69.9498 49.501 66.2071 47.4116C62.494 45.2927 59.5765 42.394 57.4546 38.7154C55.3623 35.0074 54.3161 30.7697 54.3161 26.0023C54.3161 20.7934 55.3475 16.2614 57.4104 12.4063C59.4733 8.55113 62.3171 5.56412 65.9419 3.44527C69.5667 1.29698 73.7366 0.222839 78.4518 0.222839C83.4616 0.222839 87.72 1.39998 91.2269 3.75426C94.7338 6.10855 97.3271 9.41927 99.0069 13.6864C100.687 17.9536 101.276 22.9711 100.775 28.7391H88.8841V24.3248C88.8841 19.4691 88.1031 15.9818 86.5412 13.863C85.0088 11.7147 82.4891 10.6406 78.9822 10.6406C74.886 10.6406 71.8653 11.8913 69.9203 14.3927C68.0048 16.8647 67.047 20.5286 67.047 25.3843C67.047 29.828 68.0048 33.2711 69.9203 35.7137C71.8653 38.1268 74.7091 39.3334 78.4518 39.3334C80.8094 39.3334 82.828 38.8184 84.5078 37.7884C86.1876 36.7584 87.4695 35.2723 88.3536 33.33L100.377 36.7731C98.5796 41.1286 95.7358 44.5128 91.8458 46.926C87.9852 49.3391 83.7563 50.5457 79.1591 50.5457ZM63.3338 28.7391V19.8223H94.9843V28.7391H63.3338Z" fill="#0A001B"/>
<path d="M138.075 49.2214V33.7714C136.395 34.5954 134.538 35.2281 132.505 35.6696C130.501 36.111 128.409 36.3317 126.228 36.3317C121.277 36.3317 117.343 35.2134 114.425 32.9768C111.537 30.7403 109.666 27.5031 108.811 23.2654C108.576 22.0588 108.399 20.8081 108.281 19.5133C108.192 18.2184 108.134 17.0413 108.104 15.9818C108.104 14.893 108.104 14.0543 108.104 13.4657V1.54712H120.305V13.4657C120.305 14.0248 120.334 14.9371 120.393 16.2026C120.452 17.4386 120.629 18.6746 120.923 19.9106C121.454 21.9706 122.353 23.4567 123.62 24.369C124.917 25.2813 126.758 25.7374 129.145 25.7374C131.179 25.7374 132.918 25.4726 134.362 24.9428C135.835 24.3837 137.073 23.7068 138.075 22.9123V1.54712H150.187V49.2214H138.075Z" fill="#0A001B"/>
<path d="M174.229 49.2214V12.1414H158.58V1.54712H201.901V12.1414H186.252V49.2214H174.229Z" fill="#0A001B"/>
<path d="M230.923 50.5457C226.119 50.5457 221.905 49.4716 218.28 47.3233C214.656 45.175 211.827 42.2174 209.793 38.4506C207.789 34.6543 206.787 30.2988 206.787 25.3843C206.787 20.4108 207.819 16.0407 209.882 12.2738C211.944 8.47755 214.788 5.51998 218.413 3.40112C222.038 1.28227 226.208 0.222839 230.923 0.222839C235.727 0.222839 239.941 1.29698 243.565 3.44527C247.22 5.59355 250.064 8.56584 252.097 12.3621C254.13 16.129 255.147 20.4697 255.147 25.3843C255.147 30.3283 254.116 34.6984 252.053 38.4947C250.019 42.2616 247.175 45.2191 243.521 47.3674C239.896 49.4863 235.697 50.5457 230.923 50.5457ZM230.923 39.3334C234.783 39.3334 237.657 38.0386 239.543 35.4488C241.458 32.8297 242.416 29.4748 242.416 25.3843C242.416 21.1466 241.444 17.7623 239.499 15.2314C237.583 12.7006 234.725 11.4351 230.923 11.4351C228.3 11.4351 226.149 12.0237 224.469 13.2008C222.789 14.378 221.537 16.0113 220.712 18.1007C219.916 20.1901 219.518 22.618 219.518 25.3843C219.518 29.6514 220.476 33.0504 222.391 35.5813C224.336 38.0827 227.18 39.3334 230.923 39.3334Z" fill="#0A001B"/>
</svg>
