<svg width="93" height="19" viewBox="0 0 93 19" fill="none" xmlns="http://www.w3.org/2000/svg">
<path d="M0.528809 17.7786V0.652838H4.85608V7.18598H11.9197V0.652838H16.247V17.7786H11.9197V11.2137H4.85608V17.7786H0.528809Z" fill="#0A001B"/>
<path d="M28.6819 18.2543C26.9213 18.2543 25.3675 17.879 24.0206 17.1284C22.6842 16.3673 21.6342 15.326 20.8706 14.0046C20.1175 12.6726 19.741 11.1503 19.741 9.4377C19.741 7.56655 20.1122 5.93855 20.8547 4.5537C21.5971 3.16884 22.6206 2.09584 23.9251 1.33469C25.2297 0.562981 26.7304 0.177124 28.4274 0.177124C30.2304 0.177124 31.763 0.599981 33.0251 1.44569C34.2872 2.29141 35.2206 3.4807 35.8251 5.01355C36.4297 6.54641 36.6418 8.34884 36.4615 10.4208H32.1819V8.83512C32.1819 7.09084 31.9009 5.83812 31.3388 5.07698C30.7872 4.30527 29.8804 3.91941 28.6183 3.91941C27.1441 3.91941 26.0569 4.3687 25.3569 5.26727C24.6675 6.15527 24.3228 7.47141 24.3228 9.2157C24.3228 10.812 24.6675 12.0488 25.3569 12.9263C26.0569 13.7931 27.0804 14.2266 28.4274 14.2266C29.2759 14.2266 30.0024 14.0416 30.6069 13.6716C31.2115 13.3016 31.6728 12.7677 31.991 12.07L36.3183 13.3068C35.6713 14.8714 34.6478 16.0871 33.2478 16.954C31.8585 17.8208 30.3365 18.2543 28.6819 18.2543ZM22.9865 10.4208V7.2177H34.3774V10.4208H22.9865Z" fill="#0A001B"/>
<path d="M49.8855 17.7786V12.2286C49.281 12.5246 48.6128 12.7518 47.881 12.9104C47.1598 13.069 46.4067 13.1483 45.6219 13.1483C43.8401 13.1483 42.4242 12.7466 41.3742 11.9431C40.3348 11.1397 39.6613 9.97684 39.3537 8.45455C39.2689 8.02113 39.2052 7.57184 39.1628 7.1067C39.131 6.64155 39.1098 6.2187 39.0992 5.83813C39.0992 5.44698 39.0992 5.1457 39.0992 4.93427V0.652838H43.4901V4.93427C43.4901 5.13512 43.5007 5.46284 43.5219 5.91741C43.5431 6.36141 43.6067 6.80541 43.7128 7.24941C43.9037 7.98941 44.2272 8.52327 44.6833 8.85098C45.1499 9.1787 45.8128 9.34255 46.6719 9.34255C47.4037 9.34255 48.0295 9.24741 48.5492 9.05713C49.0795 8.85627 49.5249 8.61313 49.8855 8.3277V0.652838H54.2446V17.7786H49.8855Z" fill="#0A001B"/>
<path d="M62.8972 17.7786V4.45855H57.2654V0.652838H72.8563V4.45855H67.2244V17.7786H62.8972Z" fill="#0A001B"/>
<path d="M83.3013 18.2543C81.5725 18.2543 80.0559 17.8684 78.7513 17.0967C77.4468 16.325 76.4286 15.2626 75.6968 13.9094C74.9756 12.5457 74.615 10.9811 74.615 9.2157C74.615 7.42912 74.9862 5.85927 75.7286 4.50612C76.471 3.14241 77.4945 2.07998 78.7991 1.31884C80.1036 0.557695 81.6044 0.177124 83.3013 0.177124C85.0301 0.177124 86.5468 0.562981 87.8513 1.33469C89.1665 2.10641 90.19 3.17412 90.9218 4.53784C91.6536 5.89098 92.0195 7.45027 92.0195 9.2157C92.0195 10.9917 91.6483 12.5616 90.9059 13.9253C90.1741 15.2784 89.1506 16.3408 87.8354 17.1126C86.5309 17.8737 85.0195 18.2543 83.3013 18.2543ZM83.3013 14.2266C84.6907 14.2266 85.7248 13.7614 86.4036 12.8311C87.093 11.8903 87.4377 10.6851 87.4377 9.2157C87.4377 7.69341 87.0877 6.4777 86.3877 5.56855C85.6983 4.65941 84.6695 4.20484 83.3013 4.20484C82.3574 4.20484 81.5831 4.41627 80.9786 4.83913C80.3741 5.26198 79.9233 5.8487 79.6263 6.59927C79.34 7.34984 79.1968 8.22198 79.1968 9.2157C79.1968 10.7486 79.5415 11.9696 80.2309 12.8787C80.9309 13.7773 81.9544 14.2266 83.3013 14.2266Z" fill="#0A001B"/>
</svg>
